<?xml version="1.0" standalone="no"?>
<!DOCTYPE svg PUBLIC "-//W3C//DTD SVG 20010904//EN"
 "http://www.w3.org/TR/2001/REC-SVG-20010904/DTD/svg10.dtd">
<svg version="1.0" xmlns="http://www.w3.org/2000/svg"
 width="1080.000000pt" height="1080.000000pt" viewBox="0 0 1080.000000 1080.000000"
 preserveAspectRatio="xMidYMid meet">
<metadata>
Created by potrace 1.14, written by Peter Selinger 2001-2017
</metadata>
<g transform="translate(0.000000,1080.000000) scale(0.100000,-0.100000)"
fill="#000000" stroke="none">
<path d="M0 5400 l0 -5400 5400 0 5400 0 0 5400 0 5400 -5400 0 -5400 0 0
-5400z m5683 3459 c32 -11 37 -16 37 -43 0 -32 -15 -104 -23 -112 -2 -2 -44 2
-94 11 -85 15 -192 10 -246 -10 -12 -5 -18 5 -27 47 -19 83 -13 101 40 115 56
15 259 10 313 -8z m-533 -161 c16 -29 30 -58 30 -65 0 -7 -25 -41 -56 -75
-102 -114 -148 -235 -147 -388 1 -158 61 -291 180 -400 62 -57 108 -83 203
-115 l65 -22 3 -44 c2 -24 1 -59 -3 -77 -6 -33 -7 -33 -48 -27 -168 27 -331
135 -443 291 -93 130 -129 261 -122 437 7 142 38 242 108 349 50 75 161 188
187 188 7 0 26 -24 43 -52z m854 -20 c54 -54 84 -95 114 -157 53 -106 54 -124
5 -139 -103 -29 -97 -31 -138 52 -20 41 -61 102 -91 135 -50 55 -54 62 -43 83
29 55 60 98 70 98 6 0 44 -33 83 -72z m1381 28 c92 -39 65 -176 -35 -176 -30
0 -44 6 -64 31 -44 52 -31 119 27 144 40 18 32 17 72 1z m-930 -41 c63 -67
125 -289 125 -450 0 -145 -51 -349 -106 -422 -30 -39 -72 -50 -113 -29 -58 30
-65 74 -25 163 77 176 74 412 -10 611 -32 77 -33 106 -1 137 37 38 89 34 130
-10z m-2553 -2 c22 -20 23 -41 1 -65 -20 -22 -41 -23 -65 -1 -22 20 -23 41 -1
65 20 22 41 23 65 1z m493 -105 c15 -13 28 -38 31 -58 8 -52 -21 -83 -104
-111 -213 -70 -473 -202 -687 -349 -49 -33 -99 -60 -111 -60 -12 0 -36 13 -53
29 -36 34 -41 83 -13 117 45 55 298 214 480 302 132 63 365 151 404 152 15 0
39 -10 53 -22z m1180 -53 c207 -54 311 -273 223 -467 -66 -143 -230 -218 -382
-174 -106 31 -167 84 -215 186 -34 73 -36 191 -3 262 43 96 145 178 246 198
60 12 66 11 131 -5z m-2050 -30 c32 -31 32 -55 1 -84 -30 -28 -68 -23 -92 13
-13 20 -13 29 -3 48 28 52 59 59 94 23z m3566 -37 c510 -243 958 -618 1287
-1078 137 -190 272 -432 363 -650 55 -131 124 -355 135 -438 6 -45 4 -51 -21
-70 -36 -28 -94 -29 -129 -1 -14 11 -26 26 -26 34 0 26 -70 252 -110 354 -171
437 -473 870 -819 1173 -243 214 -486 377 -756 508 -78 37 -146 74 -152 81
-26 32 -19 94 15 125 37 35 72 29 213 -38z m758 -84 c12 -15 21 -37 21 -50 0
-27 -44 -64 -77 -64 -29 0 -73 42 -73 70 0 12 11 32 25 45 33 34 77 33 104 -1z
m-3340 -189 c33 -16 41 -33 41 -81 0 -49 -30 -74 -125 -108 -114 -40 -309
-135 -433 -211 -135 -82 -247 -170 -387 -306 -60 -59 -117 -108 -125 -109 -61
-9 -120 35 -120 90 0 26 17 48 103 137 225 232 502 417 797 532 205 80 204 80
249 56z m1675 -11 c38 -37 8 -194 -62 -328 -37 -70 -158 -206 -183 -206 -8 0
-29 30 -47 66 l-33 65 46 52 c71 81 135 226 135 309 0 40 24 58 80 58 31 0 54
-6 64 -16z m718 -84 c72 -27 344 -179 443 -247 253 -176 563 -479 707 -692 30
-43 23 -84 -18 -120 -30 -27 -43 -32 -77 -29 -39 3 -45 7 -90 73 -156 228
-392 458 -637 621 -110 74 -264 163 -350 202 -101 46 -120 65 -120 117 0 32 6
49 26 69 32 31 47 32 116 6z m-3607 -140 c21 -17 37 -74 28 -98 -5 -11 -42
-58 -83 -103 l-75 -83 0 -111 c0 -96 -3 -116 -23 -153 -61 -115 -157 -175
-277 -175 -63 0 -84 4 -139 32 -187 92 -232 319 -94 475 84 96 224 132 337 86
l55 -21 70 77 c38 42 83 82 100 89 31 13 75 6 101 -15z m5054 19 c93 -32 72
-178 -25 -179 -66 0 -109 69 -83 132 10 25 30 40 75 58 1 0 15 -5 33 -11z
m-3778 -218 c36 -36 36 -44 2 -76 -35 -32 -43 -31 -76 3 -34 35 -34 55 -1 81
35 27 40 27 75 -8z m2381 -50 c29 -26 33 -35 33 -80 0 -42 -5 -55 -28 -78 -23
-23 -36 -28 -77 -28 -65 0 -100 32 -107 99 -5 42 -3 48 30 81 47 47 101 49
149 6z m-2744 -66 c34 -28 44 -63 31 -110 -11 -41 -47 -65 -94 -65 -47 0 -71
14 -90 50 -54 104 64 200 153 125z m1506 -6 c33 -39 33 -72 0 -98 -60 -47
-143 -6 -130 64 14 66 87 86 130 34z m2868 -66 c32 -29 16 -73 -27 -73 -43 0
-58 39 -28 72 20 22 31 23 55 1z m-2356 -27 c41 -41 42 -57 7 -95 -44 -47 -68
-48 -108 -8 -19 19 -35 44 -35 55 0 23 63 82 86 82 9 0 31 -15 50 -34z m-1393
0 c18 -7 47 -30 66 -51 31 -36 33 -42 29 -97 -4 -50 -9 -63 -38 -93 -81 -84
-195 -64 -242 43 -34 75 -1 158 75 192 50 23 67 24 110 6z m494 -227 c56 -27
93 -87 93 -153 0 -156 -171 -227 -281 -117 -85 84 -66 215 39 271 48 25 96 25
149 -1z m502 3 c110 -56 134 -203 46 -281 -87 -76 -219 -50 -266 53 -23 50
-24 85 -4 134 41 97 139 138 224 94z m-3581 -45 c23 -23 42 -48 42 -54 0 -14
-79 -83 -94 -83 -12 1 -40 24 -75 63 l-25 27 44 45 c24 25 49 45 55 45 6 0 30
-19 53 -43z m2213 -26 c35 -35 38 -77 8 -115 -20 -26 -22 -26 -157 -26 -248
-1 -377 -14 -471 -49 -113 -41 -211 -105 -299 -193 -135 -136 -228 -298 -276
-478 -28 -106 -55 -140 -107 -140 -37 0 -89 48 -89 82 0 46 53 215 96 307 115
244 303 450 499 549 70 35 184 71 258 82 29 4 155 8 280 9 l229 1 29 -29z
m2759 -9 c226 -75 400 -229 518 -457 45 -87 50 -120 22 -150 -30 -32 -83 -42
-114 -22 -13 9 -47 59 -76 112 -93 167 -210 272 -376 337 -99 38 -214 47 -586
48 -272 0 -278 0 -298 22 -29 32 -27 92 5 124 l26 26 392 -4 392 -4 95 -32z
m1675 -47 c18 -17 25 -35 25 -64 0 -53 -7 -69 -41 -86 -43 -23 -77 -18 -110
14 -38 39 -39 87 -3 130 34 41 92 44 129 6z m-6398 -230 c13 -14 23 -33 23
-42 0 -8 -23 -72 -51 -141 -28 -70 -64 -165 -80 -211 -33 -98 -51 -121 -92
-121 -38 0 -95 27 -108 52 -15 28 0 84 68 248 99 241 108 254 173 247 32 -4
51 -13 67 -32z m479 -9 c19 -19 34 -41 34 -50 0 -9 -43 -104 -96 -211 -105
-215 -110 -220 -180 -190 -50 21 -74 43 -74 69 1 52 140 336 193 394 32 34 81
30 123 -12z m5224 -93 c29 -37 138 -261 146 -299 5 -26 1 -35 -25 -57 -36 -30
-96 -45 -120 -30 -18 11 -20 15 -101 187 -33 71 -60 138 -60 148 0 11 13 33
29 49 41 40 100 41 131 2z m843 -11 c23 -20 22 -41 -5 -69 -27 -29 -36 -29
-65 -1 -29 28 -29 43 2 74 25 25 34 25 68 -4z m-3890 -58 c16 -5 17 -43 17
-610 l0 -604 -645 0 -645 0 0 604 c0 475 3 605 13 609 18 6 1239 8 1260 1z
m1875 1 l42 -7 -2 -601 -3 -602 -592 -3 -593 -2 0 -59 c0 -32 3 -79 6 -104 l7
-47 351 -2 351 -3 -1 -115 -1 -115 -116 -3 -117 -3 0 -119 0 -120 -120 0 -120
0 0 120 0 121 -117 -3 -118 -3 -1 -105 c-1 -58 -2 -111 -3 -117 -1 -10 -31
-13 -116 -13 l-115 0 2 353 3 352 115 0 115 0 3 597 2 597 28 3 c60 7 1070 10
1110 3z m-1388 -505 l0 -500 -115 0 -115 0 0 500 0 500 115 0 115 0 0 -500z
m-3640 416 c28 -31 29 -71 2 -99 -30 -30 -79 -27 -109 7 -28 33 -29 56 -2 90
27 35 77 36 109 2z m7144 -236 c44 -16 66 -46 66 -89 0 -52 -32 -90 -82 -98
-33 -5 -41 -2 -73 30 -24 24 -35 44 -35 65 0 33 32 79 64 92 28 12 31 12 60 0z
m-1638 -41 c59 -57 54 -136 -12 -188 -33 -26 -109 -28 -142 -5 -29 20 -52 66
-52 104 0 115 124 169 206 89z m-3940 -91 c91 -81 82 -208 -19 -257 -51 -25
-76 -26 -120 -7 -57 24 -90 69 -94 128 -8 97 56 168 148 168 40 0 55 -5 85
-32z m-971 -83 c161 -45 338 -158 440 -283 103 -124 182 -321 188 -468 2 -54
-1 -66 -22 -88 -19 -20 -34 -26 -66 -26 -61 0 -75 21 -91 135 -53 384 -395
648 -768 596 -44 -6 -118 -25 -165 -42 -123 -44 -141 -46 -170 -15 -31 33 -32
78 -1 111 24 25 129 65 241 90 85 19 330 14 414 -10z m5344 8 c49 -40 77 -280
47 -406 -50 -211 -193 -342 -290 -266 -20 16 -26 29 -26 60 0 33 7 48 44 87
93 101 118 199 90 365 -20 121 -18 132 37 159 43 23 71 23 98 1z m755 -324
c76 -28 148 -96 187 -175 28 -55 32 -76 32 -137 -1 -178 -115 -309 -296 -339
l-64 -10 -6 -172 c-7 -177 -15 -247 -43 -401 -21 -108 -42 -135 -104 -135 -88
0 -108 36 -86 149 29 148 38 248 37 444 l0 198 -37 44 c-66 81 -90 208 -59
311 55 186 260 291 439 223z m-6155 -76 c149 -50 264 -189 292 -351 22 -126
-26 -273 -123 -374 -167 -173 -455 -167 -621 12 -132 142 -160 327 -77 497 94
190 326 285 529 216z m4966 -86 c41 -41 52 -90 31 -140 -17 -41 -67 -77 -109
-77 -66 0 -127 58 -127 122 0 80 48 127 129 128 36 0 49 -6 76 -33z m-3971
-11 c51 -21 76 -60 76 -118 0 -43 -5 -55 -33 -83 -61 -61 -155 -52 -198 19
-38 62 -10 153 55 182 40 17 59 17 100 0z m5797 -243 c63 -68 63 -69 40 -101
-11 -16 -36 -41 -55 -55 l-34 -26 -45 40 c-67 58 -68 72 -11 130 27 27 53 49
59 49 6 0 27 -17 46 -37z m-1485 -154 c120 -117 187 -374 164 -622 -12 -118
-51 -300 -91 -416 -72 -208 -227 -478 -375 -653 -191 -224 -392 -365 -634
-444 -83 -26 -94 -27 -385 -34 -287 -7 -303 -8 -380 -33 -89 -29 -147 -63
-236 -137 -40 -33 -69 -50 -88 -50 -49 0 -99 67 -87 116 9 36 140 149 224 192
146 77 189 84 522 92 322 7 339 10 497 81 460 206 845 842 844 1395 0 187 -37
312 -119 407 -51 58 -53 87 -12 129 44 44 96 36 156 -23z m-2448 -111 l-3
-113 -787 -3 -788 -2 0 115 0 115 790 0 791 0 -3 -112z m2106 72 c46 -41 61
-86 46 -140 -40 -149 -250 -118 -250 37 0 83 46 133 122 133 38 0 54 -6 82
-30z m-3974 -42 c113 -57 131 -196 37 -272 -34 -27 -47 -31 -97 -31 -66 0 -99
18 -137 75 -57 83 -6 209 96 240 41 13 54 11 101 -12z m5445 -133 c17 -16 25
-35 25 -57 0 -65 -21 -255 -41 -373 -35 -211 -133 -557 -176 -623 l-15 -24
-206 4 c-114 2 -213 6 -221 8 -9 4 -31 -33 -70 -120 -83 -183 -267 -486 -320
-527 -38 -29 -120 -2 -147 48 -16 31 -6 53 65 152 116 163 193 307 286 541 28
71 59 134 67 140 12 7 62 -1 180 -29 90 -21 180 -39 202 -39 l39 -1 29 90 c66
207 121 479 133 656 11 153 25 177 108 178 28 1 45 -6 62 -24z m-1907 -267 l2
-238 -230 0 -230 0 0 240 0 240 228 -2 227 -3 3 -237z m-1898 -583 l0 -625
-642 2 -643 3 -3 623 -2 622 645 0 645 0 0 -625z m470 470 l0 -125 -114 0
c-109 0 -114 1 -120 23 -8 29 -8 156 0 196 l7 31 113 0 114 0 0 -125z m1900
-97 c0 -123 -3 -233 -6 -246 -6 -22 -9 -23 -113 -20 l-106 3 -3 243 -2 242
115 0 115 0 0 -222z m-4497 176 c15 -3 47 -29 72 -56 42 -46 50 -67 112 -257
36 -113 81 -244 100 -291 39 -99 41 -130 12 -149 -36 -22 -101 -42 -120 -36
-26 8 -90 168 -167 415 -43 139 -66 190 -85 190 -6 0 -39 -14 -72 -30 -84 -41
-100 -40 -113 12 l-11 42 77 78 c72 74 116 101 152 92 8 -1 27 -6 43 -10z
m584 -16 c36 -41 37 -48 7 -79 -15 -16 -33 -29 -39 -29 -13 0 -65 52 -65 65 0
13 52 65 65 65 6 0 21 -10 32 -22z m5642 -12 c29 -31 23 -66 -15 -86 -24 -14
-28 -13 -50 13 -30 35 -30 42 1 72 30 31 36 31 64 1z m-7169 -106 c125 -50
213 -63 382 -58 169 6 156 12 161 -87 l2 -50 -60 -13 c-90 -19 -319 -10 -419
18 -103 27 -201 73 -215 98 -23 42 -9 85 34 110 27 16 30 15 115 -18z m3784
-435 l-1 -360 -236 -3 -237 -2 0 125 0 125 120 0 120 0 0 240 0 241 118 -3
117 -3 -1 -360z m476 125 l0 -240 115 0 115 0 0 -245 0 -245 -235 0 -235 0 0
120 0 120 120 0 120 0 0 125 0 125 -120 0 -120 0 0 240 0 240 120 0 120 0 0
-240z m2840 -14 c0 -5 -10 -20 -21 -32 -24 -26 -50 -20 -69 16 -9 17 -6 25 15
46 l26 26 25 -23 c13 -12 24 -27 24 -33z m-1900 -106 l0 -120 -115 0 -115 0
-2 -242 -3 -243 -112 -3 -113 -3 0 366 0 365 230 0 230 0 0 -120z m-5341 15
c34 -37 40 -49 32 -64 -15 -27 -70 -71 -88 -71 -20 0 -83 66 -83 88 0 19 68
92 86 92 6 0 30 -20 53 -45z m857 -24 c9 -10 42 -75 73 -143 165 -361 350
-597 755 -964 78 -70 79 -72 73 -110 -12 -75 -81 -96 -153 -48 -120 81 -367
322 -497 484 -156 195 -296 431 -378 637 -37 95 -34 117 24 143 53 25 83 25
103 1z m810 -47 c17 -25 16 -26 -9 -52 l-27 -27 -27 27 c-25 26 -26 27 -9 52
9 14 25 26 36 26 11 0 27 -12 36 -26z m-1267 -14 c10 -5 30 -38 44 -72 119
-298 273 -564 468 -809 104 -131 351 -378 492 -494 209 -170 482 -335 747
-453 88 -39 110 -61 110 -111 0 -38 -24 -71 -62 -84 -30 -11 -117 22 -298 113
-531 266 -1005 692 -1336 1200 -106 163 -266 490 -305 622 -17 61 79 121 140
88z m1214 -407 c165 -180 256 -252 412 -329 187 -91 212 -95 570 -104 328 -8
364 -13 480 -65 123 -54 259 -173 328 -287 45 -74 74 -163 83 -254 7 -63 8
-67 69 -127 72 -73 99 -120 126 -224 35 -138 22 -274 -38 -401 -38 -82 -153
-194 -215 -211 -41 -12 -50 -11 -77 5 -33 20 -54 60 -49 95 2 13 27 41 63 69
151 117 197 300 116 464 -30 61 -47 80 -145 159 -27 22 -29 28 -32 113 -8 222
-125 369 -359 450 -79 28 -85 28 -385 34 -339 7 -384 14 -551 85 -198 85 -408
247 -547 424 -50 63 -54 96 -14 133 61 57 90 52 165 -29z m5014 7 c50 -30 65
-60 52 -99 -30 -87 -202 -368 -298 -489 -53 -66 -84 -80 -128 -57 -50 27 -76
60 -69 87 3 13 32 58 63 100 69 91 165 244 234 371 27 50 55 95 62 99 20 13
50 9 84 -12z m381 -11 c39 -38 40 -48 4 -82 -34 -33 -58 -34 -89 -5 -30 28
-29 63 2 93 32 32 45 31 83 -6z m-6824 -74 c14 -13 26 -32 26 -41 0 -23 -39
-64 -60 -64 -17 0 -70 49 -70 65 0 13 52 65 65 65 7 0 24 -11 39 -25z m3447
-58 c67 -45 73 -151 11 -195 -51 -37 -114 -32 -158 12 -29 29 -34 41 -34 81 0
57 12 80 53 105 42 26 86 25 128 -3z m517 -109 l-3 -113 -107 -3 -108 -3 0
116 0 115 110 0 111 0 -3 -112z m-3823 -49 c22 -20 35 -40 35 -56 0 -27 -44
-73 -70 -73 -18 0 -80 62 -80 80 0 10 64 80 73 80 4 0 22 -14 42 -31z m5386
-212 c36 -24 55 -70 45 -110 -5 -23 -210 -192 -305 -252 -55 -34 -103 -33
-130 2 -50 63 -33 108 68 182 38 27 100 76 138 108 121 104 129 107 184 70z
m-5144 -109 c9 -7 22 -28 30 -45 19 -47 -3 -98 -52 -119 -45 -18 -78 -10 -110
28 -36 43 -33 82 10 125 31 31 40 35 71 30 20 -3 43 -12 51 -19z m6046 -83
c21 -20 37 -43 37 -53 0 -24 -60 -82 -85 -82 -24 0 -69 44 -80 78 -5 18 1 30
28 57 19 19 42 35 49 35 8 0 31 -16 51 -35z m-4022 -114 c21 -22 29 -39 29
-66 0 -52 -44 -95 -97 -95 -46 0 -76 19 -93 59 -40 98 85 177 161 102z m2258
-7 c37 -31 39 -49 9 -81 -25 -27 -54 -29 -80 -6 -24 22 -23 62 4 90 27 29 30
29 67 -3z m1209 -20 c121 -50 169 -189 105 -305 -58 -108 -182 -144 -295 -88
-20 10 -45 30 -56 44 -24 31 -33 31 -58 4 -29 -32 -326 -228 -434 -286 -150
-81 -336 -163 -370 -163 -20 0 -40 9 -56 25 l-25 25 3 234 3 234 31 39 c68 84
137 104 177 51 l20 -27 -22 -41 c-18 -35 -21 -57 -21 -170 0 -72 4 -130 8
-130 19 0 286 148 392 217 174 114 298 206 305 226 12 33 69 90 110 108 49 23
133 24 183 3z m-3962 -71 c153 -70 174 -87 174 -143 0 -53 -34 -90 -83 -90
-35 0 -283 116 -306 144 -29 34 -10 114 33 134 36 18 53 14 182 -45z m1649 21
c31 -34 31 -38 -2 -69 -34 -31 -40 -31 -70 -3 -27 25 -29 45 -7 76 20 29 50
28 79 -4z m622 -9 c160 -48 261 -194 251 -366 -7 -135 -82 -245 -206 -306 -49
-24 -69 -27 -149 -28 l-93 0 0 -172 0 -172 -26 -20 c-18 -14 -41 -21 -69 -21
-36 0 -48 5 -69 31 l-26 31 0 233 0 233 -27 58 c-24 51 -28 71 -28 154 0 78 4
104 23 144 77 168 251 251 419 201z m-3382 -240 c31 -30 32 -62 3 -92 -29 -31
-71 -30 -97 3 -27 35 -26 59 4 89 31 32 59 32 90 0z m1985 -97 c135 -62 220
-210 206 -357 -21 -227 -241 -378 -457 -315 -155 45 -258 179 -259 335 0 165
88 293 242 350 75 28 193 22 268 -13z m-1546 -235 c-20 -32 -41 -39 -63 -19
-27 24 -26 41 0 67 l21 21 27 -26 c20 -21 24 -30 15 -43z m4128 -80 c22 -20
23 -41 1 -65 -23 -25 -50 -23 -69 7 -15 23 -15 27 0 50 19 29 42 32 68 8z
m-3812 -95 c24 -26 25 -45 3 -70 -20 -22 -41 -23 -65 -1 -24 21 -23 48 2 73
25 25 34 25 60 -2z m2864 -68 c8 0 25 -12 40 -26 60 -61 16 -174 -69 -174 -46
0 -105 53 -105 94 0 59 66 125 108 111 8 -3 19 -5 26 -5z"/>
<path d="M5442 8310 c-75 -34 -103 -137 -57 -207 56 -84 188 -81 239 7 71 120
-55 259 -182 200z"/>
<path d="M2810 7622 c-96 -52 -85 -192 19 -223 135 -40 215 173 84 227 -43 18
-62 18 -103 -4z"/>
<path d="M4248 6552 l-148 -3 0 -389 0 -390 425 0 425 0 0 390 0 390 -42 2
c-78 3 -511 3 -660 0z m344 -172 l148 0 -2 -212 -3 -213 -212 -3 -212 -2 -3
215 c-2 136 1 217 7 220 6 2 37 2 69 0 32 -3 126 -5 208 -5z"/>
<path d="M6110 6160 l1 -390 365 0 364 0 0 390 0 390 -365 0 -366 0 1 -390z"/>
<path d="M8523 5721 c-57 -26 -83 -71 -83 -140 0 -49 3 -57 38 -91 50 -50 94
-59 156 -32 57 26 86 70 86 132 0 109 -100 176 -197 131z"/>
<path d="M2330 5617 c-74 -24 -140 -121 -140 -203 1 -71 70 -159 145 -184 128
-42 270 60 269 195 -1 143 -134 236 -274 192z"/>
<path d="M4102 4278 l3 -403 423 -3 422 -2 0 405 0 405 -425 0 -425 0 2 -402z
m636 11 l2 -217 -22 -4 c-13 -2 -110 -2 -215 0 l-193 4 0 219 0 219 213 -2
212 -3 3 -216z"/>
<path d="M7893 2805 c-12 -8 -25 -29 -28 -47 -6 -27 -3 -36 19 -55 15 -13 36
-23 47 -23 26 0 69 43 69 70 0 26 -43 70 -67 70 -10 0 -28 -7 -40 -15z"/>
<path d="M6150 2668 c-40 -28 -70 -81 -70 -126 0 -72 76 -152 144 -152 42 0
89 24 124 64 80 92 8 236 -119 236 -31 0 -57 -7 -79 -22z"/>
<path d="M4701 2353 c-66 -33 -95 -115 -66 -188 42 -112 172 -133 257 -44 50
52 57 95 27 156 -13 26 -36 56 -51 67 -38 27 -123 32 -167 9z"/>
</g>
</svg>
